<?xml version="1.0" encoding="utf-8"?>
<svg version="1.1" id="Layer_1" xmlns="http://www.w3.org/2000/svg" xmlns:xlink="http://www.w3.org/1999/xlink" x="0px" y="0px"
	 viewBox="0 0 200 33" style="enable-background:new 0 0 200 33;" xml:space="preserve">
<style type="text/css">
	.green{fill:#00DB9C;}
	.grey{fill:#546E7A;}
</style>
<g class="green">
	<path d="M14.58,1.92C6.54,1.92,0,8.46,0,16.5c0,8.04,6.54,14.58,14.58,14.58c8.04,0,14.58-6.54,14.58-14.58
		C29.16,8.46,22.62,1.92,14.58,1.92z M14.58,27.6c-6.12,0-11.1-4.98-11.1-11.1c0-6.12,4.98-11.1,11.1-11.1
		c6.12,0,11.1,4.98,11.1,11.1C25.68,22.62,20.7,27.6,14.58,27.6z"/>
	<circle cx="17.53" cy="12.06" r="2.95"/>
</g>
<g class="grey">
	<path d="M51.26,15.91v-0.14c2.61-0.69,3.71-2.89,3.71-4.81c0-4.4-3.78-5.57-8.45-5.57h-8.04v22.33h8.73
		c4.81,0,8.8-1.99,8.8-6.6C56,18.18,54.42,16.53,51.26,15.91z M44.39,9.93h1.99c1.92,0,2.82,0.55,2.82,1.92
		c0,1.37-0.89,2.34-2.82,2.34h-1.99V9.93z M46.8,23.19h-2.41v-4.88h2.41c2.34,0,3.44,0.69,3.44,2.34
		C50.23,22.3,49.13,23.19,46.8,23.19z"/>
	<path d="M69,21.61c-0.76,1.1-1.37,1.51-2.47,1.51c-1.17,0-1.72-0.55-1.72-2.75v-9.83H58.9v10.58
		c0,4.26,1.58,7.01,5.36,7.01c2.34,0,3.92-1.03,5.29-2.68h0.14l0.41,2.27h4.81V10.55H69V21.61z"/>
	<path d="M88.9,10.14c-1.51,0-3.02,0.62-4.23,1.72l0.14-2.47V5.34H78.9v22.38h4.6l0.48-1.86h0.14
		c1.31,1.51,2.82,2.27,4.33,2.27c3.64,0,7.15-3.37,7.15-9.31C95.6,13.57,92.95,10.14,88.9,10.14z M87.01,23.33
		c-0.76,0-1.51-0.21-2.2-0.82v-6.32c0.76-0.89,1.44-1.24,2.34-1.24c1.58,0,2.41,1.17,2.41,3.99C89.55,22.23,88.38,23.33,87.01,23.33
		z"/>
	<path d="M108.83,10.14c-1.51,0-3.02,0.62-4.23,1.72l0.14-2.47V5.34h-5.91v22.38h4.6l0.48-1.86h0.14
		c1.3,1.51,2.82,2.27,4.33,2.27c3.64,0,7.15-3.37,7.15-9.31C115.53,13.57,112.89,10.14,108.83,10.14z M106.94,23.33
		c-0.76,0-1.51-0.21-2.2-0.82v-6.32c0.76-0.89,1.44-1.24,2.34-1.24c1.58,0,2.4,1.17,2.4,3.99
		C109.48,22.23,108.32,23.33,106.94,23.33z"/>
	<path d="M125.64,23.4c-0.41,0-0.96-0.34-0.96-1.51V5.34h-5.91v16.34c0,3.85,1.31,6.46,5.29,6.46
		c1.31,0,2.27-0.21,2.89-0.48l-0.69-4.33C125.98,23.4,125.85,23.4,125.64,23.4z"/>
	<path d="M136.36,10.14c-4.19,0-8.25,3.44-8.25,9c0,5.7,3.85,9,8.86,9c1.92,0,4.4-0.69,6.25-1.99l-1.92-3.5
		c-1.24,0.69-2.33,1.03-3.5,1.03c-1.93,0-3.44-0.69-3.99-2.89h9.79c0.1-0.41,0.24-1.31,0.24-2.34
		C143.85,13.85,141.44,10.14,136.36,10.14z M133.75,17.21c0.34-1.89,1.44-2.61,2.75-2.61c1.79,0,2.34,1.17,2.34,2.61H133.75z"/>
	<path d="M153.82,25.84c-1.93,0-2.58-1.17-2.58-3.23V12.32h4.5v-2.3h-4.5V5.34h-2.37l-0.34,4.67l-2.61,0.17v2.13h2.47
		v10.26c0,3.3,1.2,5.56,4.78,5.56c1.03,0,2.17-0.31,3.09-0.62l-0.55-2.13C155.16,25.6,154.4,25.84,153.82,25.84z"/>
	<path d="M170.07,12.64h-0.07c-1.51-1.34-2.89-2.03-4.74-2.03c-3.81,0-7.28,3.37-7.28,8.8c0,5.57,2.71,8.73,6.9,8.73
		c1.96,0,3.75-1.1,5.05-2.37h0.1l0.24,1.96h2.34v-16.7h-2.3L170.07,12.64z M169.76,23.47c-1.37,1.55-2.71,2.3-4.26,2.3
		c-2.92,0-4.6-2.4-4.6-6.39c0-3.81,2.13-6.39,4.81-6.39c1.37,0,2.65,0.48,4.05,1.75V23.47z"/>
	<path d="M180.96,25.8c-0.41,0-0.79-0.34-0.79-1.24V5.34h-2.82v19.02c0,2.44,0.86,3.78,2.99,3.78
		c0.76,0,1.24-0.1,1.62-0.27l-0.38-2.13C181.27,25.8,181.14,25.8,180.96,25.8z"/>
	<polygon  points="193.64,17.73 199.24,11.03 196.12,11.03 189.01,19.82 188.9,19.82 188.9,5.34 186.12,5.34 
		186.12,27.73 188.9,27.73 188.9,23.33 192.03,19.69 196.91,27.73 200,27.73 	"/>
</g>
</svg>